<svg width="21" height="21" viewBox="0 0 21 21" fill="none" xmlns="http://www.w3.org/2000/svg">
<path d="M19.6594 11.3656L20.8031 5.10313C20.8169 5.02229 20.8132 4.93944 20.7922 4.86018C20.7711 4.78092 20.7333 4.70711 20.6813 4.64375C20.6298 4.57879 20.5642 4.52644 20.4895 4.49069C20.4148 4.45495 20.3328 4.43675 20.25 4.4375H4.96875L4.48125 1.76563C4.42829 1.4635 4.27045 1.18974 4.03551 0.992529C3.80058 0.795321 3.50361 0.687307 3.19687 0.6875H1.5C1.35082 0.6875 1.20774 0.746763 1.10225 0.852253C0.996763 0.957742 0.9375 1.10082 0.9375 1.25C0.9375 1.39918 0.996763 1.54226 1.10225 1.64775C1.20774 1.75324 1.35082 1.8125 1.5 1.8125H3.19687C3.23913 1.81376 3.27971 1.82927 3.31205 1.8565C3.34438 1.88372 3.36656 1.92108 3.375 1.9625L5.97188 16.2312C5.65075 16.4897 5.40039 16.8253 5.24422 17.2068C5.08806 17.5882 5.03117 18.003 5.0789 18.4125C5.12662 18.8219 5.27739 19.2125 5.51711 19.5478C5.75683 19.8832 6.07767 20.1522 6.44962 20.3298C6.82158 20.5074 7.2325 20.5878 7.64397 20.5635C8.05545 20.5392 8.45402 20.4109 8.80244 20.1906C9.15085 19.9704 9.43773 19.6654 9.63623 19.3041C9.83473 18.9429 9.93839 18.5372 9.9375 18.125C9.93938 17.6595 9.80583 17.2035 9.55313 16.8125H15.1969C14.9442 17.2035 14.8106 17.6595 14.8125 18.125C14.8125 18.6071 14.9555 19.0784 15.2233 19.4792C15.4911 19.88 15.8718 20.1925 16.3172 20.377C16.7626 20.5614 17.2527 20.6097 17.7255 20.5157C18.1984 20.4216 18.6327 20.1895 18.9736 19.8486C19.3145 19.5077 19.5466 19.0734 19.6407 18.6005C19.7347 18.1277 19.6864 17.6376 19.502 17.1922C19.3175 16.7468 19.005 16.3661 18.6042 16.0983C18.2034 15.8305 17.7321 15.6875 17.25 15.6875H7.0125L6.53437 13.0625H17.6344C18.1171 13.0614 18.5842 12.8909 18.9542 12.5809C19.3243 12.2708 19.5738 11.8407 19.6594 11.3656ZM8.8125 18.125C8.8125 18.3846 8.73552 18.6383 8.5913 18.8542C8.44708 19.07 8.2421 19.2383 8.00227 19.3376C7.76244 19.4369 7.49854 19.4629 7.24394 19.4123C6.98934 19.3616 6.75548 19.2366 6.57192 19.0531C6.38837 18.8695 6.26336 18.6357 6.21272 18.3811C6.16208 18.1265 6.18807 17.8626 6.28741 17.6227C6.38675 17.3829 6.55497 17.1779 6.77081 17.0337C6.98665 16.8895 7.24041 16.8125 7.5 16.8125C7.8481 16.8125 8.18194 16.9508 8.42808 17.1969C8.67422 17.4431 8.8125 17.7769 8.8125 18.125ZM18.5625 18.125C18.5625 18.3846 18.4855 18.6383 18.3413 18.8542C18.1971 19.07 17.9921 19.2383 17.7523 19.3376C17.5124 19.4369 17.2485 19.4629 16.9939 19.4123C16.7393 19.3616 16.5055 19.2366 16.3219 19.0531C16.1384 18.8695 16.0134 18.6357 15.9627 18.3811C15.9121 18.1265 15.9381 17.8626 16.0374 17.6227C16.1367 17.3829 16.305 17.1779 16.5208 17.0337C16.7367 16.8895 16.9904 16.8125 17.25 16.8125C17.5981 16.8125 17.9319 16.9508 18.1781 17.1969C18.4242 17.4431 18.5625 17.7769 18.5625 18.125ZM5.175 5.5625H19.575L18.5531 11.1687C18.5137 11.384 18.4003 11.5786 18.2326 11.719C18.0648 11.8594 17.8532 11.9367 17.6344 11.9375H6.3375L5.175 5.5625Z" fill="#F8E4BE"/>
</svg>
